PathFileType	4	(X/Y/Z)	C:/Users/beibeiliu/ov580/test_trc\sequence.11_training_dense_right.trc
DataRate	CameraRate	NumFrames	NumMarkers	Units	OrigDataRate	OrigDataStartFrame	OrigNumFrames
120	120	12	19	mm	120	34	100
Frame#	Time	ThumbCMC			ThumbMCP			ThumbIP			ThumbTip			IndexMCP			IndexPIP			IndexTip			MiddleMCP			MiddlePIP			MiddleTip			RingMCP			RingPIP			RingTip			PinkyMCP			PinkyPIP			PinkyTip			BackHand1			BackHand2			BackHand3	
		X0	Y0	Z0	X1	Y1	Z1	X2	Y2	Z2	X3	Y3	Z3	X4	Y4	Z4	X5	Y5	Z5	X6	Y6	Z6	X7	Y7	Z7	X8	Y8	Z8	X9	Y9	Z9	X10	Y10	Z10	X11	Y11	Z11	X12	Y12	Z12	X13	Y13	Z13	X14	Y14	Z14	X15	Y15	Z15	X16	Y16	Z16	X17	Y17	Z17	X18	Y18	Z18	
33	0.275	123.708	64.7178	19.1416	106.022	63.581	-9.89221	92.8544	48.2284	-25.9084	78.5083	25.2062	-32.8852	143.565	17.4879	-24.923	144.041	5.41919	-42.1179	141.596	-8.1742	-59.8006	126.067	-3.20261	-15.3129	124.754	-16.4446	-39.4791	116.957	-27.7173	-60.1306	98.2496	-1.70118	-13.9789	79.6168	14.4576	-21.5611	77.5729	33.6078	-3.30568	88.7802	-2.199	2.42005	73.7426	15.6678	-4.19267	82.6383	38.3078	12.8367	125.007	10.4007	33.1149	125.489	24.8522	52.3418	139.325	38.8173	30.7511	
34	0.283333	118.418	70.6589	22.6481	105.249	66.8803	-9.72008	100.515	50.9961	-22.3929	94.3134	27.185	-36.9389	155.699	37.7866	-16.9423	167.902	32.5093	-40.5932	171.682	23.5422	-56.7159	153.641	18.0024	-18.9591	157.074	6.04462	-38.034	155.662	-7.67116	-63.8876	124.222	9.32333	-16.5486	101.892	15.331	-26.3646	91.2958	36.1232	-5.62589	111.541	2.05259	-2.47083	91.6895	13.8163	-9.14768	90.3282	34.798	5.68828	133.587	20.8612	34.5476	127.964	33.9421	56.4919	141.144	50.5786	33.6974	
35	0.291667	102.835	77.5005	31.118	94.9375	72.2848	-6.01275	95.1848	59.0346	-24.4841	101.156	37.1434	-33.1046	152.99	73.163	-16.3587	161.601	68.052	-34.2404	170.201	69.8025	-55.3222	158.902	47.7939	-18.7753	166.962	42.2324	-40.0956	171.711	32.3549	-63.4475	134.13	26.889	-17.4673	107.654	31.3887	-28.7345	92.7802	36.9037	-3.72719	124.667	16.7104	-9.33931	105.117	20.5798	-14.1884	93.3858	34.9883	5.63423	140.735	40.6169	32.754	128.293	42.8782	58.8236	134.302	64.3528	39.0792	
36	0.3	85.6419	76.414	30.8748	76.6931	70.1797	0.576505	87.4561	60.8928	-25.2229	99.0339	45.2432	-35.6928	128.068	95.43	-14.2223	133.219	103.777	-34.1904	140.581	104.889	-54.4386	141.329	81.9339	-20.1122	150.523	80.4757	-40.6127	158.579	81.955	-68.0257	130.735	51.3899	-20.457	105.324	40.4265	-28.6538	92.9834	40.4489	-4.19337	130.942	33.491	-9.38776	103.481	27.7569	-13.4221	92.5808	36.0222	3.08804	133.523	58.8193	29.7747	126.254	57.2014	52.5956	116.446	77.6151	42.112	
37	0.308333	71.2457	64.2971	34.1759	63.4012	57.1523	-0.00895067	77.9452	53.3959	-25.9485	97.6724	44.6414	-35.3341	95.7779	99.9484	-16.9385	98.9948	107.924	-37.2346	96.7898	117.378	-59.3106	118.354	94.2404	-22.6822	126.05	97.0355	-44.6349	132.315	100.673	-70.4065	121.858	63.3155	-22.4931	102.433	40.911	-27.8942	91.6751	37.8658	-4.98923	128.565	45.4906	-12.0091	107.347	30.5409	-11.0206	94.6049	36.7823	9.96527	123.834	74.0062	29.2204	120.661	68.2799	51.2575	99.2351	84.4122	35.4936	
38	0.316667	62.7826	56.0624	35.7294	61.1029	41.1301	3.54113	76.4394	38.333	-20.5259	95.8768	33.9517	-29.3676	74.2701	86.5303	-27.2318	71.1726	88.9527	-47.0657	70.4592	91.6479	-69.0232	101.541	86.3226	-27.2534	102.084	87.4425	-50.077	107.008	89.6979	-76.9773	111.221	59.3515	-24.1748	106.416	34.7518	-24.3166	93.0077	30.7868	1.41354	124.972	52.3827	-7.39738	114.914	30.57	-5.47679	97.7971	33.1068	13.5359	109.145	80.7286	26.0813	104.77	79.7876	49.158	83.4609	85.4922	33.4283	
39	0.325	55.6385	51.1407	37.751	65.0582	31.4055	8.44611	81.5639	26.9997	-8.56705	99.942	22.3946	-17.0766	64.9659	66.5502	-24.0373	63.0148	61.6988	-45.6947	61.7735	57.7837	-68.369	90.6482	71.5046	-32.5327	98.1026	65.582	-53.8207	105.371	60.7097	-76.7975	111.99	50.2857	-18.5176	106.443	25.5941	-11.5756	94.5252	26.4561	14.5787	119.984	51.3638	-3.04554	114.355	28.2489	6.25734	97.7315	34.0198	25.8856	102.41	84.6055	23.0578	97.2133	87.0588	50.1495	71.4002	84.4742	29.4033	
40	0.333333	54.2209	50.9258	39.1777	64.282	24.5565	21.4918	80.0401	14.0519	4.8418	100.666	12.3813	-5.40222	62.1401	51.2393	-22.8985	65.1559	39.583	-41.242	64.0762	27.5778	-63.494	91.8139	55.9695	-27.8145	94.2921	43.5159	-44.911	102.594	31.5462	-68.2082	110.504	43.6598	-8.80767	106.279	17.497	1.12158	97.0433	19.9503	26.7895	122.648	44.6858	4.87992	114.353	24.5044	18.6116	98.013	32.0086	36.0944	95.7563	81.5406	19.9684	91.3201	91.9349	45.0339	70.6287	81.0679	28.6596	
41	0.341667	54.1032	54.2348	44.5509	57.0776	22.4537	32.5166	74.4759	10.3611	15.161	95.1395	1.08944	5.13052	57.8165	41.4236	-17.9577	59.3886	25.085	-33.7925	56.595	10.1469	-48.0697	86.0317	40.4987	-25.6424	92.2967	24.9069	-39.1677	98.272	5.51209	-56.7282	105.665	28.5276	-3.23598	99.1129	8.67676	10.1178	90.4449	18.6793	38.8547	118.879	36.1446	11.2286	104.132	18.3132	27.1372	93.6924	29.0221	43.424	97.6632	78.0851	21.023	94.0247	86.9551	41.6459	67.8408	79.6956	28.9643	
42	0.35	53.6699	58.9705	49.1961	48.8313	27.3174	42.7435	59.5779	6.31597	26.9573	78.6071	-7.71786	17.5479	53.9801	32.0845	-11.3716	50.3163	16.4786	-20.4432	44.2745	-2.03974	-31.7426	79.3727	25.805	-16.0505	78.6359	9.10877	-25.0272	76.5518	-15.0195	-37.7346	91.0202	17.6821	6.34182	83.995	-0.825061	25.2645	76.1494	11.0018	46.9651	109.822	20.2869	19.7462	96.4501	7.7512	37.3043	83.2364	26.5356	52.8849	98.6855	67.8607	22.7603	99.9537	80.983	41.3045	71.4146	75.776	28.0943	
43	0.358333	51.5369	67.5711	55.0903	39.8194	38.2126	50.5503	42.3697	15.5555	39.9194	56.601	-1.76758	33.1068	43.8493	35.7455	0.382299	27.2705	15.7255	-10.1287	18.3884	0.226128	-15.5938	61.0932	22.066	-2.366	48.5828	0.749537	-11.3795	40.5784	-21.3933	-16.495	73.8524	10.3302	14.5129	60.2495	-3.15243	38.2826	63.1506	9.25728	59.9344	90.4827	6.16749	28.3842	74.6504	4.73212	47.267	72.4692	25.8687	60.9058	96.065	56.5844	24.8339	103.481	72.2922	39.9743	78.4552	74.2408	32.604	
44	0.366667	60.6478	74.4055	54.5873	36.4432	56.1014	55.783	34.3886	31.6658	48.1268	47.9275	10.2037	44.5108	29.2965	44.1304	5.61489	13.2584	33.1578	1.93897	-2.44114	14.3667	-2.61704	40.3458	24.4816	6.35408	24.3938	6.02572	3.39965	5.23766	-11.0292	3.61894	50.7486	9.38796	24.737	35.588	4.60233	47.4998	42.1951	15.8248	69.0406	66.8179	8.24819	36.6507	56.4965	10.7251	59.3281	60.306	33.1597	65.7386	90.5644	44.8636	22.4541	107.864	61.1873	41.7277	81.6425	73.2566	32.1434	
